<?xml version="1.0" encoding="utf-8"?>
<svg version="1.1" xmlns:xlink="http://www.w3.org/1999/xlink" width="27px" height="27px" xmlns="http://www.w3.org/2000/svg">
  <g transform="matrix(1 0 0 1 -128 -333 )">
    <path d="M 21.9183238636364 12.4453125  C 22.0333806818182 12.5603693181818  22.0909090909091 12.7073863636364  22.0909090909091 12.8863636363636  L 22.0909090909091 14.1136363636364  C 22.0909090909091 14.2926136363636  22.0333806818182 14.4396306818182  21.9183238636364 14.5546875  C 21.8032670454545 14.6697443181818  21.65625 14.7272727272727  21.4772727272727 14.7272727272727  L 14.7272727272727 14.7272727272727  L 14.7272727272727 21.4772727272727  C 14.7272727272727 21.65625  14.6697443181818 21.8032670454545  14.5546875 21.9183238636364  C 14.4396306818182 22.0333806818182  14.2926136363636 22.0909090909091  14.1136363636364 22.0909090909091  L 12.8863636363636 22.0909090909091  C 12.7073863636364 22.0909090909091  12.5603693181818 22.0333806818182  12.4453125 21.9183238636364  C 12.3302556818182 21.8032670454545  12.2727272727273 21.65625  12.2727272727273 21.4772727272727  L 12.2727272727273 14.7272727272727  L 5.52272727272727 14.7272727272727  C 5.34375 14.7272727272727  5.19673295454546 14.6697443181818  5.08167613636364 14.5546875  C 4.96661931818182 14.4396306818182  4.90909090909091 14.2926136363636  4.90909090909091 14.1136363636364  L 4.90909090909091 12.8863636363636  C 4.90909090909091 12.7073863636364  4.96661931818182 12.5603693181818  5.08167613636364 12.4453125  C 5.19673295454546 12.3302556818182  5.34375 12.2727272727273  5.52272727272727 12.2727272727273  L 12.2727272727273 12.2727272727273  L 12.2727272727273 5.52272727272727  C 12.2727272727273 5.34375  12.3302556818182 5.19673295454546  12.4453125 5.08167613636364  C 12.5603693181818 4.96661931818182  12.7073863636364 4.90909090909091  12.8863636363636 4.90909090909091  L 14.1136363636364 4.90909090909091  C 14.2926136363636 4.90909090909091  14.4396306818182 4.96661931818182  14.5546875 5.08167613636364  C 14.6697443181818 5.19673295454546  14.7272727272727 5.34375  14.7272727272727 5.52272727272727  L 14.7272727272727 12.2727272727273  L 21.4772727272727 12.2727272727273  C 21.65625 12.2727272727273  21.8032670454545 12.3302556818182  21.9183238636364 12.4453125  Z M 23.6441761363636 23.6441761363636  C 24.2450284090909 23.0433238636364  24.5454545454545 22.3210227272727  24.5454545454545 21.4772727272727  L 24.5454545454545 5.52272727272727  C 24.5454545454545 4.67897727272727  24.2450284090909 3.95667613636363  23.6441761363636 3.35582386363636  C 23.0433238636364 2.75497159090909  22.3210227272727 2.45454545454546  21.4772727272727 2.45454545454546  L 5.52272727272727 2.45454545454546  C 4.67897727272727 2.45454545454546  3.95667613636364 2.75497159090909  3.35582386363636 3.35582386363636  C 2.75497159090909 3.95667613636363  2.45454545454545 4.67897727272727  2.45454545454545 5.52272727272727  L 2.45454545454545 21.4772727272727  C 2.45454545454545 22.3210227272727  2.75497159090909 23.0433238636364  3.35582386363636 23.6441761363636  C 3.95667613636364 24.2450284090909  4.67897727272727 24.5454545454545  5.52272727272727 24.5454545454545  L 21.4772727272727 24.5454545454545  C 22.3210227272727 24.5454545454545  23.0433238636364 24.2450284090909  23.6441761363636 23.6441761363636  Z M 25.3796164772727 1.62038352272727  C 26.4598721590909 2.70063920454545  27 4.00142045454545  27 5.52272727272727  L 27 21.4772727272727  C 27 22.9985795454545  26.4598721590909 24.2993607954545  25.3796164772727 25.3796164772727  C 24.2993607954545 26.4598721590909  22.9985795454546 27  21.4772727272727 27  L 5.52272727272727 27  C 4.00142045454546 27  2.70063920454546 26.4598721590909  1.62038352272727 25.3796164772727  C 0.540127840909091 24.2993607954545  0 22.9985795454545  0 21.4772727272727  L 0 5.52272727272727  C 0 4.00142045454545  0.540127840909091 2.70063920454545  1.62038352272727 1.62038352272727  C 2.70063920454546 0.540127840909088  4.00142045454546 0  5.52272727272727 0  L 21.4772727272727 0  C 22.9985795454546 0  24.2993607954545 0.540127840909088  25.3796164772727 1.62038352272727  Z " fill-rule="nonzero" fill="#333333" stroke="none" transform="matrix(1 0 0 1 128 333 )" />
  </g>
</svg>